<?xml version="1.0" standalone="no"?>
<!DOCTYPE svg PUBLIC "-//W3C//DTD SVG 20010904//EN"
 "http://www.w3.org/TR/2001/REC-SVG-20010904/DTD/svg10.dtd">
<svg version="1.0" xmlns="http://www.w3.org/2000/svg"
 width="256.000000pt" height="256.000000pt" viewBox="0 0 256.000000 256.000000"
 preserveAspectRatio="xMidYMid meet">
<metadata>
Created by potrace 1.11, written by Peter Selinger 2001-2013
</metadata>
<g transform="translate(0.000000,256.000000) scale(0.100000,-0.100000)"
fill="#000000" stroke="none">
<path d="M297 2540 c-128 -40 -231 -141 -274 -269 l-22 -66 0 -925 c0 -874 1
-928 19 -983 40 -128 141 -231 269 -274 l66 -22 921 -1 c809 0 928 2 975 16
139 40 241 139 289 277 19 57 20 85 20 981 0 994 1 965 -52 1069 -26 51 -120
143 -171 167 -112 52 -60 50 -1055 49 -876 0 -930 -1 -985 -19z"/>
</g>
</svg>
